<?xml version="1.0" encoding="UTF-8" standalone="no"?>
<svg width="265px" height="175px" viewBox="0 0 265 175" version="1.1" xmlns="http://www.w3.org/2000/svg" xmlns:xlink="http://www.w3.org/1999/xlink" xmlns:sketch="http://www.bohemiancoding.com/sketch/ns">
    <!-- Generator: Sketch 3.3.3 (12072) - http://www.bohemiancoding.com/sketch -->
    <title>Social Media Links</title>
    <desc>Created with Sketch.</desc>
    <defs>
        <rect id="path-1" x="0.782608696" y="0.666666667" width="65.4347826" height="65.3333333" rx="40"></rect>
        <rect id="path-3" x="0.565217391" y="0" width="65.4347826" height="65.3333333" rx="40"></rect>
        <rect id="path-5" x="0.782608696" y="0" width="65.4347826" height="65.3333333" rx="40"></rect>
        <rect id="path-7" x="0" y="0.666666667" width="65.4347826" height="65.3333333" rx="40"></rect>
        <rect id="path-9" x="0.565217391" y="0.666666667" width="65.4347826" height="65.3333333" rx="40"></rect>
        <rect id="path-11" x="0" y="0" width="65.4347826" height="65.3333333" rx="40"></rect>
    </defs>
    <g id="Page-1" stroke="none" stroke-width="1" fill="none" fill-rule="evenodd" sketch:type="MSPage">
        <g id="Feature-Illustrations" sketch:type="MSArtboardGroup" transform="translate(-916.000000, -3637.000000)">
            <g id="Social-Media-Links" sketch:type="MSLayerGroup" transform="translate(916.000000, 3637.000000)">
                <g id="Rectangle-686-Copy-49-+-Google+-Copy" transform="translate(83.000000, 95.000000)">
                    <mask id="mask-2" sketch:name="Mask" fill="white">
                        <use xlink:href="#path-1"></use>
                    </mask>
                    <use id="Mask" fill="#D8DBE1" sketch:type="MSShapeGroup" xlink:href="#path-1"></use>
                    <path d="M22.5224609,43.8662109 L49.4468443,70.7905943 L72.4223633,47.5356445 L46.3458365,21.4591178 L44.4052734,25.7138672 L39.4500246,20.9091611 C39.4500246,20.9091611 30.1455078,21.6689453 29.2744141,21.6689453 C28.4033203,21.6689453 24.7646484,28.2158203 24.7646484,28.2158203 L32.7460938,32.6054688 C32.7460938,32.6054688 32.3115234,34.0878906 32.3115234,35.078125 C32.3115234,36.0683594 26.1259766,39.5410156 26.1259766,39.5410156 L22.5224609,43.8662109 Z" id="Path-826" fill="#D1D4DB" sketch:type="MSShapeGroup" mask="url(#mask-2)"></path>
                    <path d="M50,26.8404406 L46.2873723,26.8404406 L46.2873723,30.4885917 L44.4324963,30.4885917 L44.4324963,26.8404406 L40.7198685,26.8404406 L40.7198685,25.0149489 L44.4324963,25.0149489 L44.4324963,21.3653816 L46.2873723,21.3653816 L46.2873723,25.0149489 L50,25.0149489 L50,26.8404406 L50,26.8404406 Z M39.5062908,41.9343824 C39.5062908,44.6690795 36.965542,48 30.5726904,48 C25.8995532,48 22,46.0173092 22,42.6835563 C22,40.1103068 23.6578853,36.7680566 31.4009141,36.7680566 C30.2506034,35.8475216 29.9687773,34.5587726 30.6704668,33.163808 C26.1368048,33.163808 23.8146151,30.5424076 23.8146151,27.2157356 C23.8146151,23.9598741 26.2777179,21 31.3016998,21 L39.348123,21 L37.5507626,22.8566483 L35.4385046,22.8566483 C36.9281569,23.6950433 37.7204334,25.4228167 37.7204334,27.3290323 C37.7204334,29.079465 36.7397936,30.4956727 35.343604,31.5592447 C32.8618087,33.4442172 33.4959174,34.4964595 36.0970575,36.3601888 C38.6579366,38.2465775 39.5062908,39.702439 39.5062908,41.9343824 L39.5062908,41.9343824 Z M34.4851846,27.4451613 C34.1113336,24.6467349 32.2564577,22.3496459 30.088122,22.2845004 C27.9197864,22.2221873 26.4646434,24.3634933 26.8399322,27.1647522 C27.2137832,29.966011 29.2757151,31.9203777 31.4440507,31.984107 C33.6123864,32.0492526 34.8604735,30.2464201 34.4851846,27.4451613 L34.4851846,27.4451613 Z M36.7225389,42.2147915 C36.7225389,39.9120378 34.5858368,37.7169158 30.9997432,37.7169158 C27.770246,37.6815106 25.0310687,39.7236821 25.0310687,42.0915814 C25.0310687,44.5062156 27.3633236,46.5172305 30.5956966,46.5172305 C34.7267499,46.5172305 36.7225389,44.6308419 36.7225389,42.2147915 L36.7225389,42.2147915 Z" id="Google+-Copy" fill="#FFFFFF" sketch:type="MSShapeGroup" mask="url(#mask-2)"></path>
                </g>
                <g id="Rectangle-686-Copy-46-+-Imported-Layers" transform="translate(158.000000, 21.000000)">
                    <mask id="mask-4" sketch:name="Mask" fill="white">
                        <use xlink:href="#path-3"></use>
                    </mask>
                    <use id="Mask" fill="#D8DBE1" sketch:type="MSShapeGroup" xlink:href="#path-3"></use>
                    <path d="M37.3144531,37.4140625 C33.3834695,40.1457182 19.6552734,42.2109375 19.6552734,42.2109375 L51.1262038,73.6818678 L74.2997603,50.5083113 L47.000254,23.2088049 C47.000254,23.2088049 42.498463,33.811674 37.3144531,37.4140625 Z" id="Path-811" fill="#D1D4DB" sketch:type="MSShapeGroup" mask="url(#mask-4)"></path>
                    <path d="M48.69044,26.7460479 C48.69044,26.7460479 48.3875569,24.5905518 47.4580273,23.6413422 C46.2792109,22.3955219 44.9578755,22.3893361 44.3519271,22.3164236 C40.0139302,22 33.5067071,22 33.5067071,22 L33.4932321,22 C33.4932321,22 26.9861608,22 22.6480121,22.3164236 C22.0420334,22.3893361 20.7211836,22.3955219 19.5419423,23.6413422 C18.6124734,24.5905518 18.3100152,26.7460479 18.3100152,26.7460479 C18.3100152,26.7460479 18,29.2773143 18,31.8085502 L18,34.1815894 C18,36.7127946 18.3100152,39.2440303 18.3100152,39.2440303 C18.3100152,39.2440303 18.6124734,41.3995571 19.5419423,42.3487667 C20.7211836,43.5946177 22.2701973,43.5552064 22.9601214,43.6857813 C25.4401517,43.9257402 33.5,44 33.5,44 C33.5,44 40.0139302,43.9901089 44.3519271,43.673716 C44.9578755,43.6007728 46.2792109,43.5946177 47.4580273,42.3487667 C48.3875569,41.3995571 48.69044,39.2440303 48.69044,39.2440303 C48.69044,39.2440303 49,36.7127946 49,34.1815894 L49,31.8085502 C49,29.2773143 48.69044,26.7460479 48.69044,26.7460479 L48.69044,26.7460479 Z M30.2996054,37.0572685 L30.298179,28.2685744 L38.6745068,32.6782328 L30.2996054,37.0572685 L30.2996054,37.0572685 Z" id="Imported-Layers" fill="#FFFFFF" sketch:type="MSShapeGroup" mask="url(#mask-4)"></path>
                </g>
                <g id="Rectangle-686-Copy-47-+-Twitter-Copy-3" transform="translate(83.000000, 21.000000)">
                    <mask id="mask-6" sketch:name="Mask" fill="white">
                        <use xlink:href="#path-5"></use>
                    </mask>
                    <use id="Mask" fill="#D8DBE1" sketch:type="MSShapeGroup" xlink:href="#path-5"></use>
                    <path d="M20.7949219,42.6552734 L33.8974609,41.7382812 L45.3984375,25.3759766 L48.8154297,24.2646484 L74.3771998,49.8264186 L47.7607422,69.5742188 L20.7949219,42.6552734 Z" id="Path-810" fill="#D1D4DB" sketch:type="MSShapeGroup" mask="url(#mask-6)"></path>
                    <path d="M29.119441,45 C25.7591799,45 22.63112,43.9957211 20,42.2771206 C23.1561608,42.654669 26.3064055,41.7636547 28.8088535,39.7686886 C26.2058344,39.7188523 24.0080579,37.9685376 23.250816,35.5612887 C24.1825785,35.7410018 25.0995512,35.6866348 25.9366585,35.4555751 C23.0762954,34.8711301 21.1018462,32.2464133 21.1654427,29.4404732 C21.9670543,29.8935313 22.8840269,30.1668764 23.8616381,30.1985905 C21.2112913,28.3939089 20.4599653,24.8313617 22.0188188,22.1115026 C24.9531314,25.7737226 29.3368523,28.1855021 34.2811098,28.4392147 C33.4129437,24.6486282 36.2378111,21 40.0772644,21 C41.7884537,21 43.3354753,21.7354644 44.4210526,22.9119054 C45.7758058,22.6430909 47.0506936,22.1371759 48.1983884,21.4424868 C47.753213,22.8590486 46.8110975,24.0460609 45.5835373,24.795117 C46.7874337,24.6486282 47.9336495,24.3224264 49,23.8436949 C48.1998674,25.0563806 47.1911975,26.1225774 46.0301918,26.9773471 C46.4043758,35.4993708 40.1645247,45 29.119441,45 Z" id="Twitter-Copy-3" fill="#FFFFFF" sketch:type="MSShapeGroup" mask="url(#mask-6)"></path>
                    <path id="Path-809" stroke="#979797" sketch:type="MSShapeGroup" mask="url(#mask-6)" d=""></path>
                </g>
                <g id="Rectangle-686-Copy-52-+-Fill-4-Copy" transform="translate(9.000000, 95.000000)">
                    <mask id="mask-8" sketch:name="Mask" fill="white">
                        <use xlink:href="#path-7"></use>
                    </mask>
                    <use id="Mask" fill="#D8DBE1" sketch:type="MSShapeGroup" xlink:href="#path-7"></use>
                    <path d="M26.2563477,49.6025391 L46.4282636,69.774455 L68.7975186,50.4962491 L40.8500977,22.5488281 L26.5708008,22.3818359 C26.5708008,22.3818359 23.0800781,27.2900391 23.0800781,28.2807617 C23.0800781,29.2714844 23.4501953,34.7998047 23.4501953,34.7998047 L24.8764648,36.2861328 L24.8764648,37.3139648 L27.8208008,40.3232422 L26.2563477,49.6025391 Z" id="Path-812" fill="#D1D4DB" sketch:type="MSShapeGroup" mask="url(#mask-8)"></path>
                    <path d="M33.1958985,20 C25.0876618,20 21,25.8697387 21,30.7645871 C21,33.7279605 22.1110637,36.3644528 24.4942,37.3477111 C24.8853688,37.5087982 25.2352532,37.3534643 25.348785,36.9162281 C25.4277413,36.6139284 25.6140367,35.8508572 25.6976374,35.5333902 C25.8116853,35.1013842 25.7673046,34.9497113 25.4519958,34.5731443 C24.7646122,33.754111 24.3254504,32.6944932 24.3254504,31.1939782 C24.3254504,26.8388758 27.5523346,22.940884 32.7278377,22.940884 C37.3103951,22.940884 39.8282214,25.7682748 39.8282214,29.5444053 C39.8282214,34.5129982 37.6504745,38.7059675 34.4179138,38.7059675 C32.6323678,38.7059675 31.2963046,37.2153897 31.7246292,35.3869475 C32.2375867,33.2039047 33.2309902,30.8477457 33.2309902,29.2724403 C33.2309902,27.8618829 32.481164,26.6856339 30.9293904,26.6856339 C29.1046243,26.6856339 27.6385156,28.5914815 27.6385156,31.1458613 C27.6385156,32.7718986 28.1824362,33.8723112 28.1824362,33.8723112 C28.1824362,33.8723112 26.3148377,41.8628545 25.9876596,43.2619057 C25.3353676,46.0490247 25.8896094,49.4653246 25.9365703,49.810511 C25.9639211,50.0150078 26.2245283,50.0636477 26.3421885,49.9088368 C26.510422,49.6870807 28.6840405,46.9773671 29.4230295,44.2702685 C29.6320312,43.5035362 30.6233705,39.533369 30.6233705,39.533369 C31.2163163,40.6750993 32.9492248,41.6813701 34.7920528,41.6813701 C40.2777042,41.6813701 44,36.6311878 44,29.8718095 C44,24.7599119 39.7121093,20 33.1958985,20" id="Fill-4-Copy" fill="#FFFFFF" sketch:type="MSShapeGroup" mask="url(#mask-8)"></path>
                    <path id="Path-825" stroke="#979797" sketch:type="MSShapeGroup" mask="url(#mask-8)" d=""></path>
                </g>
                <g id="Rectangle-686-Copy-51-+-Instagram-Copy" transform="translate(158.000000, 95.000000)">
                    <mask id="mask-10" sketch:name="Mask" fill="white">
                        <use xlink:href="#path-9"></use>
                    </mask>
                    <use id="Mask" opacity="0.8" fill="#CED2D9" sketch:type="MSShapeGroup" xlink:href="#path-9"></use>
                    <path d="M21.1914062,43.4169922 L52.4335301,74.6591161 L75.2578125,51.4458008 L44.1659868,20.3539751 L21.7055664,26.0913086 L19.8486328,27.7949219 L21.1914062,43.4169922 Z" id="Path-827" fill="#D1D4DB" sketch:type="MSShapeGroup" mask="url(#mask-10)"></path>
                    <path d="M46.1248447,29.3678754 L46.1248447,40.1743581 C46.1248447,42.9877675 43.8369638,45.2748538 41.0258455,45.2748538 L24.8362663,45.2748538 C22.025148,45.2748538 19.7372671,42.9863014 19.7372671,40.1743581 L19.7372671,29.3678754 L19.7372671,23.9800278 C19.7372671,21.1666185 22.025148,18.8795322 24.8362663,18.8795322 L41.0258455,18.8795322 C43.8369638,18.8795322 46.1248447,21.1666185 46.1248447,23.9800278 L46.1248447,29.3678754 Z M43.1928916,21.8123457 L43.1928916,22.1917623 L43.1928916,24.735578 L40.2705452,24.7451592 L40.2609386,21.8219269 L42.8105465,21.8133038 L43.1928916,21.8123457 Z M28.5352229,28.9756907 C29.4658718,27.6859757 30.9781763,26.8407114 32.6859818,26.8407114 C34.3937872,26.8407114 35.9060918,27.6859757 36.8367407,28.9756907 C37.4426319,29.8177226 37.8061667,30.8472319 37.8061667,31.962399 C37.8061667,34.7858726 35.5070114,37.0824703 32.6859818,37.0824703 C29.8617208,37.0824703 27.5657969,34.7858726 27.5657969,31.962399 C27.5657969,30.8472319 27.9277159,29.8177226 28.5352229,28.9756907 L28.5352229,28.9756907 Z M40.0697529,28.6555772 C39.8433433,28.1548908 39.5678426,27.6809159 39.2502302,27.2395169 C37.7784486,25.1998876 35.3868034,23.8631382 32.6859818,23.8631382 C29.9851602,23.8631382 27.593515,25.1998876 26.1217334,27.2395169 C25.803274,27.6809159 25.5274878,28.1548908 25.3010751,28.6555772 L19.7372671,28.6555772 L19.7372671,31.5883907 L24.5972608,31.5883907 C24.5915273,31.7124917 24.5886275,31.8373371 24.5886275,31.9628688 C24.5886275,36.4280722 28.2195333,40.0600436 32.6859818,40.0600436 C37.14732,40.0600436 40.7833361,36.4280722 40.7833361,31.9628688 C40.7833361,31.8373371 40.7804233,31.7124917 40.7746667,31.5883907 L46.1248447,31.5883907 L46.1248447,28.6555772 L40.0697529,28.6555772 Z" id="Instagram-Copy" fill="#FFFFFF" sketch:type="MSShapeGroup" mask="url(#mask-10)"></path>
                </g>
                <g id="Rectangle-686-Copy-50-+-Facebook-Copy-2" transform="translate(9.000000, 21.000000)">
                    <mask id="mask-12" sketch:name="Mask" fill="white">
                        <use xlink:href="#path-11"></use>
                    </mask>
                    <use id="Mask" fill="#D8DBE1" sketch:type="MSShapeGroup" xlink:href="#path-11"></use>
                    <path d="M26.1435547,33.1074219 L30.9262695,37.9594727 L29.0810547,47.7128906 L48.4792136,67.1110496 C48.4792136,67.1110496 70.7705078,69.8808594 70.7705078,67.1591797 C70.7705078,64.4375 71.0849609,57.09375 71.0849609,57.09375 L69.8085938,51.4824219 L39.8427734,18.2197266 L34.6933594,23.4697266 L26.1435547,33.1074219 Z" id="Path-808" opacity="0.5" fill="#CACED5" sketch:type="MSShapeGroup" mask="url(#mask-12)"></path>
                    <path d="M39.4530522,33.0112528 L35.2312986,33.0112528 L35.2312986,48 L28.9740289,48 L28.9740289,33.0112528 L26,33.0112528 L26,27.7149287 L28.9740289,27.7149287 L28.9740289,24.2865716 C28.9740289,21.8334584 30.1440622,18 35.2887902,18 L39.9223085,18.0180045 L39.9223085,23.1582896 L36.5582686,23.1582896 C36.0097669,23.1582896 35.2328524,23.4328582 35.2328524,24.6016504 L35.2328524,27.7149287 L40,27.7149287 L39.4530522,33.0112528 L39.4530522,33.0112528 Z" id="Facebook-Copy-2" fill="#FFFFFF" sketch:type="MSShapeGroup" mask="url(#mask-12)"></path>
                </g>
            </g>
            <g id="Content" sketch:type="MSLayerGroup" transform="translate(193.000000, 374.000000)"></g>
        </g>
    </g>
</svg>